<svg height="256" viewBox="0 0 256 256" width="256" xmlns="http://www.w3.org/2000/svg"><g fill="none" stroke-miterlimit="10" stroke-width="0" transform="matrix(2.81 0 0 2.81 1.406593 1.406593)"><path d="m37.712 41.541c-2.437-10.14 2.919-19.609 8.772-25.137-6.221 11.54-7.41 20.104-3.461 33.177l2.29-.854c-.882-2.464-1.413-4.873-1.685-7.241 8.23-2.355 13.883-7.209 15.231-15.926.937-11.909-6.817-18.84-15.141-25.443 3.04 9.758-11.581 17.964-10.296 30.949.271 2.741.697 5.33 1.326 7.825" fill="#7fb241"/><path d="m34.069 30.999c.917-12.923 13.599-21.098 9.649-30.883 1.394 8.216-9.771 12.38-12.663 22.195-1.575 5.836-1.151 11.452 3.693 16.579-.629-2.494-.811-5.139-.679-7.891z" fill="#719c40"/><path d="m68.77 61.09 1.69-13.48h-26.77-24.15l1.69 13.48z" fill="#a07e63"/><path d="m63.11 61.09-3.61 28.91h-15.49-13.51l-3.61-28.91" fill="#a07e63"/><path d="m62.61 65.09.5-4h-36.22l.5 4z" fill="#916b4d"/></g></svg>